<svg width="63" height="63" viewBox="0 0 63 63" fill="none" xmlns="http://www.w3.org/2000/svg">
<circle cx="31.5" cy="31.5" r="29.5" fill="#F40000" stroke="white" stroke-width="4"/>
<mask id="mask0_0_586" style="mask-type:alpha" maskUnits="userSpaceOnUse" x="0" y="0" width="63" height="63">
<circle cx="31.5" cy="31.5" r="29.5" fill="white" stroke="white" stroke-width="4"/>
</mask>
<g mask="url(#mask0_0_586)">
<mask id="mask1_0_586" style="mask-type:alpha" maskUnits="userSpaceOnUse" x="8" y="22" width="21" height="15">
<path fill-rule="evenodd" clip-rule="evenodd" d="M8.58337 22.5812H28.0735V36.8341H8.58337V22.5812Z" fill="white"/>
</mask>
<g mask="url(#mask1_0_586)">
<path fill-rule="evenodd" clip-rule="evenodd" d="M9.86545 28.4555C11.1267 26.1218 13.3058 23.5762 15.8791 22.7263C16.4076 22.5945 17.1102 22.4464 17.5789 22.8076C17.9957 23.1166 18.0517 23.6448 17.9573 24.1204C17.8336 24.6827 17.4482 25.395 16.8038 25.4855C16.6878 25.4853 16.5891 25.4443 16.5141 25.3628C16.3462 25.1997 16.3587 24.9618 16.3943 24.7472C16.5004 24.3009 16.914 23.8267 17.39 23.7644C17.4714 23.7123 17.4369 23.6136 17.4138 23.5441C17.3505 23.4451 17.2754 23.3695 17.1591 23.346C16.6433 23.286 16.2534 23.6096 15.8576 23.8808C14.3565 25.0883 13.2662 26.6397 12.3498 28.1857C11.6023 29.5757 10.9648 31.0124 10.7793 32.6365C10.6881 33.8141 11.0614 34.97 12.1096 35.5366C13.2448 36.1381 14.7142 35.7312 15.8526 35.4218L16.898 35.1004L18.9077 34.5039C20.8129 33.9479 23.198 33.8228 25.0582 34.5601C26.1822 35.0282 27.3406 35.6706 28.0735 36.7756C28.0735 36.8045 28.0735 36.8395 28.0385 36.8334C26.4443 36.3985 24.3687 35.9679 22.7877 36.7223L22.7123 36.7049C22.2333 35.9372 21.4226 35.5107 20.5934 35.3454C17.9137 35.0867 15.7101 36.3554 13.1908 36.6717C11.9138 36.7892 10.5446 36.7497 9.65443 35.7719C8.24926 34.3685 8.4146 31.8915 9.08201 30.1995C9.29869 29.6026 9.56752 29.0233 9.86545 28.4555Z" fill="white"/>
</g>
<path fill-rule="evenodd" clip-rule="evenodd" d="M24.1958 30.5942C24.1077 30.8841 23.9731 31.1968 24.0651 31.5163C24.0938 31.5802 24.1631 31.6269 24.2268 31.6445C24.4881 31.6511 24.663 31.4138 24.8317 31.2287C25.5958 30.1696 26.1797 29.0286 26.706 27.8698C26.794 27.6266 26.9338 27.4008 26.929 27.128C26.9235 27.0698 26.8655 27.0291 26.8192 26.9998C26.7034 26.9473 26.5928 27.0281 26.4999 27.0742C25.4702 27.8655 24.915 29.0011 24.4006 30.0784L24.1958 30.5942ZM16.3372 27.892C16.3591 28.2403 16.6829 28.5433 16.9901 28.6603C17.0655 28.6837 17.1872 28.7421 17.2514 28.6494C17.3681 28.4295 17.4386 28.1859 17.4974 27.9423C17.5564 27.6236 17.6043 27.1945 17.2977 26.9845C17.1932 26.9261 17.0368 26.9196 16.9264 26.9715C16.5776 27.1443 16.3269 27.4975 16.3372 27.892ZM15.3401 29.2347C15.0129 29.8951 14.68 30.5611 14.6657 31.3443C14.7 31.4896 14.7863 31.6582 14.9486 31.6994C15.1227 31.7465 15.2682 31.654 15.4018 31.5674C16.0419 31.03 16.4856 30.2949 16.8476 29.588C16.8769 29.5187 16.9295 29.4318 16.889 29.3562C16.5066 29.2042 16.1361 28.9414 15.8414 28.61L15.7775 28.598C15.7195 28.6094 15.6961 28.6674 15.6555 28.7078L15.3401 29.2347ZM13.5645 29.2925C14.2303 28.0705 15.2508 26.577 16.6622 26.1293C17.0398 26.0436 17.4457 26.0798 17.7351 26.3304C18.3423 26.9358 18.1064 27.9737 17.9009 28.6866C17.9009 28.7272 17.9354 28.7737 17.9761 28.7795C18.5157 28.7642 18.9517 28.5103 19.3418 28.1402C20.1806 27.2034 21.0785 25.9763 22.4414 26.1202C22.6967 26.1618 22.9457 26.3076 23.0783 26.5461C23.4239 27.2319 23.085 27.9908 22.6132 28.5172C22.4325 28.6908 22.2059 28.8234 21.945 28.7411C21.8407 28.706 21.754 28.6013 21.7137 28.4968C21.6167 28.0149 21.8969 27.5688 22.2864 27.3149C22.3971 27.2052 22.7335 27.2816 22.6415 27.032C22.5722 26.9329 22.4677 26.921 22.3575 26.9206C21.6952 27.1969 21.2634 27.8742 20.8784 28.4416C20.3941 29.2002 20.0026 30.005 19.7444 30.8572C19.6737 31.1646 19.5854 31.5646 19.7643 31.8494C19.8968 32.0297 20.1174 32.1059 20.3437 32.0487C21.0002 31.79 21.5767 31.2639 22.0774 30.7203C23.2252 29.3435 23.8346 27.6394 25.3704 26.5192C25.8472 26.1901 26.5213 25.9371 27.0947 26.2406C27.1873 26.276 27.2623 26.3981 27.3787 26.352C27.4717 26.2596 27.5362 26.0624 27.7217 26.1095C28.1454 26.1169 28.6329 26.0953 29.0677 26.1376L29.0966 26.1782L28.9739 26.4735L26.5896 31.3162C26.5664 31.3682 26.5603 31.4379 26.5716 31.4959C26.612 31.5658 26.6992 31.56 26.7628 31.5373C27.106 31.3411 27.3741 30.9764 27.6132 30.6698C27.823 30.3804 28.0097 30.0794 28.1617 29.7607C28.2258 29.6679 28.3016 29.5525 28.4294 29.5703C28.5628 29.588 28.7309 29.5306 28.8296 29.6238C28.6772 30.0295 28.438 30.3998 28.2278 30.7822C27.5802 31.7779 26.7349 32.9356 25.5444 33.233C25.3469 33.2556 25.1034 33.2722 24.953 33.1266C24.7214 32.9518 24.7109 32.6733 24.6478 32.4234C24.6248 32.3943 24.5841 32.3883 24.5494 32.3998C24.0428 32.8566 23.5191 33.313 22.8058 33.2237C22.5855 33.1764 22.3771 33.0074 22.2793 32.7982C22.0948 32.4435 22.1833 31.9856 22.173 31.5909C22.1558 31.5444 22.0978 31.5618 22.0745 31.5792C21.3002 32.3424 20.4622 33.0298 19.4346 33.2237C18.9584 33.2801 18.5471 33.1392 18.2291 32.8016C17.4608 31.795 18.069 30.4744 18.4727 29.4951C18.4901 29.4488 18.4846 29.3849 18.4266 29.373C18.1481 29.3952 17.8809 29.4407 17.614 29.4805L17.5207 29.5846C16.8957 30.7428 16.2186 31.9707 15.0958 32.8313C14.6305 33.1663 13.939 33.3961 13.3947 33.0866C12.8273 32.6959 12.7776 31.9994 12.8494 31.3556C12.9854 30.6249 13.249 29.947 13.5645 29.2925Z" fill="white"/>
<path fill-rule="evenodd" clip-rule="evenodd" d="M29.1556 27.6172C29.3834 27.1655 29.5764 26.6961 29.8624 26.2678C29.9786 26.1405 30.1585 26.147 30.3154 26.1302L31.4582 26.1455L31.5047 26.1922C31.3117 26.6499 31.101 27.1016 30.8615 27.5418C30.8031 27.6576 30.681 27.7676 30.5474 27.7846C30.0833 27.7945 29.59 27.8218 29.1491 27.7797C29.1028 27.7332 29.1437 27.6696 29.1556 27.6172Z" fill="white"/>
<path fill-rule="evenodd" clip-rule="evenodd" d="M36.5769 27.5385C36.5939 27.6953 36.657 27.8637 36.8195 27.9223C37.1324 28.0104 37.3826 27.7792 37.6152 27.6001C38.454 26.7154 38.9622 25.69 39.0942 24.5127C39.0946 24.3386 39.1536 24.1183 39.0554 23.9671C38.9856 23.9552 38.9102 23.9841 38.852 24.0243C38.2879 24.3995 37.7579 24.9488 37.3731 25.5045C36.9707 26.1242 36.6028 26.7611 36.5769 27.5385ZM30.3021 29.9365C31.0969 28.2914 32.054 26.7047 33.4106 25.3052C34.7269 23.9928 36.1518 22.93 37.8764 22.6052C38.3465 22.5371 38.8745 22.5797 39.233 22.9001C39.3026 22.9583 39.3836 23.0165 39.4825 22.9822C40.7199 22.4874 42.4381 22.3133 43.6776 22.9326C44.3959 23.2835 45.0791 23.7324 45.7679 24.1644C45.8549 24.2111 45.8138 24.3037 45.7673 24.3558C45.3714 24.7954 45.0389 25.247 44.6833 25.704C44.6427 25.7446 44.5788 25.7268 44.5384 25.7036L42.715 24.4498C41.8639 23.8723 40.8848 23.4685 39.7759 23.6504C39.6539 23.7139 39.7113 23.8648 39.6935 23.9809C39.7185 25.1182 39.3149 26.109 38.7663 27.0123C38.3287 27.6434 37.822 28.3029 37.0784 28.5151C36.7532 28.5837 36.4403 28.4838 36.2438 28.2221C35.7013 27.3962 36.1805 26.3884 36.5775 25.6526C37.0329 24.8536 37.7377 24.1017 38.4999 23.5241C38.5175 23.4952 38.5523 23.4665 38.5292 23.4315C38.454 23.3559 38.3261 23.4018 38.2333 23.4188C36.9959 23.8323 36.0057 24.9254 35.0911 25.9609C33.4595 27.9686 32.2221 30.1461 31.5175 32.5402C31.2996 33.4387 31.0047 34.8188 31.9193 35.4484C32.7242 35.8808 33.4979 35.3261 34.1033 34.8063C35.0232 33.8692 35.6421 32.7864 35.8958 31.563C35.9376 31.1977 36.0378 30.6991 35.7023 30.4483C35.4009 30.3136 35.1507 30.5623 34.947 30.7706C34.4748 31.3376 34.2755 32.0157 34.1916 32.7466C33.9822 32.92 33.7322 33.0294 33.5111 33.197C33.0923 33.4856 32.6791 33.8729 32.347 34.2605C32.3064 34.2719 32.3006 34.2254 32.289 34.2023C32.2415 32.856 32.7212 31.7028 33.4618 30.6668C34.0503 29.9842 34.8065 29.4006 35.7225 29.6187C36.1225 29.7242 36.3879 30.1489 36.4623 30.5263C36.6086 31.7918 36.0769 32.8984 35.5044 33.929C34.5827 35.3765 33.1272 36.8392 31.2827 36.6646C30.5748 36.6218 29.9151 36.132 29.6157 35.4812C28.9184 34.092 29.4005 32.3064 29.8692 30.9619L30.3021 29.9365Z" fill="white"/>
<path fill-rule="evenodd" clip-rule="evenodd" d="M46.0168 34.4702C46.0045 34.6384 45.9631 34.8471 46.0906 34.9753C46.1597 35.045 46.2701 35.0513 46.3572 35.0226C46.7002 34.8441 46.922 34.4791 47.1318 34.1781C47.8317 33.0897 48.3463 31.9252 48.8264 30.7432C48.8442 30.6387 48.8737 30.4938 48.7752 30.4238C48.4915 30.2894 48.2699 30.6021 48.0603 30.7523C47.1348 31.6716 46.6434 32.7839 46.181 33.902L46.0168 34.4702ZM39.6216 31.3728C39.6434 31.7267 39.9268 32.0584 40.2512 32.1757C40.3151 32.1991 40.4309 32.2286 40.4776 32.1476C40.6765 31.6956 40.8641 31.1798 40.7614 30.6573C40.7212 30.5352 40.6171 30.4131 40.4895 30.3719C40.362 30.3367 40.2284 30.377 40.118 30.4287C39.7924 30.6423 39.6343 30.9957 39.6216 31.3728ZM37.9393 34.628C37.95 34.8253 38.0481 35.0287 38.251 35.0933C38.3842 35.14 38.5295 35.0826 38.6457 35.0248C39.3148 34.5284 39.712 33.7638 40.0742 33.0686C40.1091 32.9991 40.1386 32.8892 40.0459 32.8364C39.6984 32.6612 39.3629 32.3873 39.0854 32.0788C39.0508 32.0439 38.9867 32.0378 38.9463 32.0611C38.6955 32.3966 38.5317 32.7675 38.3563 33.1382C38.1574 33.6075 37.9411 34.0708 37.9393 34.628ZM37.7528 31.4765C38.4232 30.5912 39.3144 29.6252 40.4404 29.5535C40.7244 29.5606 40.9736 29.6774 41.1468 29.9159C41.6261 30.6256 41.2224 31.5351 41.0458 32.2539C41.0284 32.3178 41.0747 32.3642 41.1208 32.3816C41.353 32.4174 41.62 32.3836 41.8234 32.28L41.9109 32.1698C42.7196 29.8634 43.9222 27.7206 45.3508 25.6773C46.2428 24.4967 47.3842 23.2763 48.7091 22.7063C49.023 22.5974 49.4758 22.4654 49.7768 22.6986C50.1123 22.9723 50.0179 23.4479 49.9296 23.8131C49.8938 24.138 49.5338 24.1713 49.2957 24.2463C49.2842 24.2402 49.2723 24.2461 49.2607 24.2344C49.2674 24.0256 49.3784 23.8402 49.4194 23.6373C49.4315 23.5269 49.4493 23.4344 49.403 23.3297C49.3456 23.2252 49.2179 23.2595 49.1308 23.2882C48.6831 23.5069 48.3221 23.9061 47.9783 24.2938C46.6966 25.7804 45.7684 27.431 44.9155 29.0991C44.6351 29.6784 44.3426 30.2518 44.1144 30.8544C44.1084 30.8893 44.1201 30.9126 44.149 30.9358C44.3463 30.9308 44.4631 30.728 44.6143 30.6244C45.7436 29.601 46.6586 28.4264 47.5039 27.2341C47.6844 27.1474 47.893 27.1484 48.102 27.1316L48.1426 27.1432C48.1305 27.3059 47.9908 27.433 47.9148 27.5777C46.9701 28.938 45.898 30.2397 44.5941 31.4248L43.6514 32.1991C43.4535 32.3725 43.4468 32.6393 43.3474 32.8595C43.1657 33.4565 42.9833 34.0649 42.9581 34.7208C42.9635 34.831 43.0038 34.9355 43.0963 34.9939C43.3456 35.1051 43.5434 34.8678 43.7181 34.7061C44.9941 33.2308 45.5574 31.4223 47.1168 30.099C47.629 29.6948 48.3031 29.3487 48.9636 29.6529C49.0794 29.694 49.1659 29.845 49.3056 29.7758C49.4045 29.7065 49.4107 29.5501 49.55 29.5561C50.0084 29.5521 50.4959 29.5363 50.9366 29.5727C50.9772 29.6077 50.9479 29.6655 50.9362 29.7061L50.6206 30.3432L48.6691 34.2822C48.5814 34.4617 48.4648 34.6527 48.4755 34.8558C48.5044 34.943 48.5972 34.9492 48.6726 34.932C49.039 34.7301 49.3068 34.3946 49.5459 34.053C49.7851 33.7173 49.9777 33.364 50.2053 33.0226C50.3274 32.965 50.4955 32.9888 50.6289 33.0066C50.7098 33.0822 50.6051 33.1804 50.5875 33.2675C50.0145 34.455 49.2153 35.7521 47.9655 36.4092C47.6749 36.5533 47.2741 36.6853 46.9555 36.51C46.7008 36.3352 46.7251 36.016 46.6101 35.7719C46.5868 35.7371 46.5286 35.7428 46.4997 35.7599C45.9817 36.2224 45.423 36.7427 44.6984 36.5428C44.2464 36.3326 44.1959 35.8101 44.1625 35.3632C44.1395 35.3456 44.1512 35.311 44.1223 35.2934L44.0643 35.3165C43.5574 35.9239 42.9164 36.6818 42.0637 36.6093C41.7387 36.5848 41.4557 36.2705 41.3579 35.9803C41.0595 35.0333 41.3765 33.9958 41.5885 33.0856C41.5887 33.0333 41.5307 32.9809 41.4846 32.9749L40.7707 32.984L40.6543 33.1172C40.1283 34.148 39.5505 35.1441 38.6423 36.0055C38.1651 36.4276 37.5779 36.7795 36.9228 36.5856C36.3783 36.3516 36.2352 35.7593 36.2372 35.2023C36.3522 33.7987 36.9831 32.6112 37.7528 31.4765Z" fill="white"/>
<path fill-rule="evenodd" clip-rule="evenodd" d="M47.3697 25.8178L47.9874 25.0192L48.0806 24.9381C49.868 24.9039 51.2643 23.8412 52.5217 22.5862C52.5154 22.7546 52.4394 22.9108 52.3808 23.0616C51.556 25.0026 49.5541 26.7073 47.3898 26.7348L46.879 26.7271C46.7864 26.7037 46.8505 26.6109 46.8739 26.5646L47.3697 25.8178Z" fill="white"/>
<path fill-rule="evenodd" clip-rule="evenodd" d="M49.9328 36.0269V35.844H50.0549C50.1174 35.844 50.1839 35.8573 50.1839 35.9307C50.1839 36.0217 50.116 36.0269 50.04 36.0269H49.9328ZM49.9328 36.1029H50.0359L50.192 36.3592H50.2924L50.1241 36.0989C50.211 36.0882 50.2775 36.0419 50.2775 35.9362C50.2775 35.8195 50.2081 35.768 50.0685 35.768H49.8435V36.3592H49.9328V36.1029ZM50.0416 36.5763C50.3207 36.5763 50.5594 36.3592 50.5594 36.0623C50.5594 35.768 50.3207 35.5509 50.0416 35.5509C49.7594 35.5509 49.5205 35.768 49.5205 36.0623C49.5205 36.3592 49.7594 36.5763 50.0416 36.5763ZM49.6236 36.0623C49.6236 35.8195 49.8067 35.6362 50.0416 35.6362C50.2734 35.6362 50.4563 35.8195 50.4563 36.0623C50.4563 36.3091 50.2734 36.4908 50.0416 36.4908C49.8067 36.4908 49.6236 36.3091 49.6236 36.0623Z" fill="white"/>
</g>
</svg>
